<?xml version="1.0" encoding="utf-8"?>
<!-- Generator: Adobe Illustrator 24.0.0, SVG Export Plug-In . SVG Version: 6.00 Build 0)  -->
<svg version="1.1" id="Layer_1" xmlns="http://www.w3.org/2000/svg" xmlns:xlink="http://www.w3.org/1999/xlink" x="0px" y="0px"
	 viewBox="0 0 2500 2500" style="enable-background:new 0 0 2500 2500;" xml:space="preserve">
<style type="text/css">
	.st0{fill:#56B3B4;}
	.st1{fill:#EA5E5E;}
	.st2{fill:#BF85BF;}
	.st3{fill:#F7BA3E;}
	.st4{opacity:0.5;fill:#D0D4D8;enable-background:new    ;}
</style>
<title>prettier-icon-light</title>
<g id="Page-1">
	<g id="prettier-icon-light">
		<g id="Icon-_x28_Light_x29_">
			<g id="Group">
				<path id="Rectangle" class="st0" d="M1760.2,586.7h102c28.6,0,51,22.4,51,51s-22.4,51-51,51h-102c-28.6,0-51-22.4-51-51
					S1731.6,586.7,1760.2,586.7z"/>
				<path id="Rectangle_1_" class="st1" d="M229.6,2219.4h510.2c28.6,0,51,22.4,51,51s-22.4,51-51,51H229.6c-28.6,0-51-22.4-51-51
					S201,2219.4,229.6,2219.4z"/>
				<path id="Rectangle_2_" class="st2" d="M1454.1,1403.1h306.1c28.6,0,51,22.4,51,51s-22.4,51-51,51h-306.1c-28.6,0-51-22.4-51-51
					S1425.5,1403.1,1454.1,1403.1z"/>
				<path id="Rectangle_3_" class="st1" d="M841.8,1403.1H1250c28.6,0,51,22.4,51,51s-22.4,51-51,51H841.8c-28.6,0-51-22.4-51-51
					S813.3,1403.1,841.8,1403.1z"/>
				<path id="Rectangle_4_" class="st0" d="M229.6,1403.1h408.2c28.6,0,51,22.4,51,51s-22.4,51-51,51H229.6c-28.6,0-51-22.4-51-51
					S201,1403.1,229.6,1403.1z"/>
				<path id="Rectangle_5_" class="st2" d="M229.6,1811.2h510.2c28.6,0,51,22.4,51,51s-22.4,51-51,51H229.6c-28.6,0-51-22.4-51-51
					C178.6,1833.7,201,1811.2,229.6,1811.2z"/>
				<path id="Rectangle_6_" class="st2" d="M229.6,994.9h510.2c28.6,0,51,22.4,51,51s-22.4,51-51,51H229.6c-28.6,0-51-22.4-51-51
					C178.6,1017.3,201,994.9,229.6,994.9z"/>
				<path id="Rectangle_7_" class="st3" d="M739.8,382.7h1020.4c28.6,0,51,22.4,51,51s-22.4,51-51,51H739.8c-28.6,0-51-22.4-51-51
					S711.2,382.7,739.8,382.7z"/>
				<path id="Rectangle_8_" class="st1" d="M229.6,382.7h306.1c28.6,0,51,22.4,51,51s-22.4,51-51,51H229.6c-28.6,0-51-22.4-51-51
					S201,382.7,229.6,382.7z"/>
				<path id="Rectangle_9_" class="st3" d="M637.8,2015.3h102c28.6,0,51,22.4,51,51c0,28.6-22.4,51-51,51h-102
					c-28.6,0-51-22.4-51-51C586.7,2037.8,609.2,2015.3,637.8,2015.3z"/>
				<path id="Rectangle_10_" class="st0" d="M637.8,790.8h102c28.6,0,51,22.4,51,51s-22.4,51-51,51h-102c-28.6,0-51-22.4-51-51
					C586.7,813.3,609.2,790.8,637.8,790.8z"/>
				<path id="Rectangle_11_" class="st0" d="M229.6,2015.3h204.1c28.6,0,51,22.4,51,51c0,28.6-22.4,51-51,51H229.6
					c-28.6,0-51-22.4-51-51C178.6,2037.8,201,2015.3,229.6,2015.3z"/>
				<path id="Rectangle_12_" class="st3" d="M229.6,790.8h204.1c28.6,0,51,22.4,51,51s-22.4,51-51,51H229.6c-28.6,0-51-22.4-51-51
					C178.6,813.3,201,790.8,229.6,790.8z"/>
				<path id="Rectangle_13_" class="st4" d="M1556.1,2015.3h102c28.6,0,51,22.4,51,51c0,28.6-22.4,51-51,51h-102
					c-28.6,0-51-22.4-51-51C1505.1,2037.8,1527.6,2015.3,1556.1,2015.3z"/>
				<path id="Rectangle_14_" class="st4" d="M943.9,2015.3H1352c28.6,0,51,22.4,51,51c0,28.6-22.4,51-51,51H943.9
					c-28.6,0-51-22.4-51-51C892.9,2037.8,915.3,2015.3,943.9,2015.3z"/>
				<path id="Rectangle_15_" class="st4" d="M1862.2,2015.3h408.2c28.6,0,51,22.4,51,51c0,28.6-22.4,51-51,51h-408.2
					c-28.6,0-51-22.4-51-51C1811.2,2037.8,1833.7,2015.3,1862.2,2015.3z"/>
				<path id="Rectangle_16_" class="st0" d="M1045.9,1199h816.3c28.6,0,51,22.4,51,51s-22.4,51-51,51h-816.3c-28.6,0-51-22.4-51-51
					C994.9,1221.4,1017.3,1199,1045.9,1199z"/>
				<path id="Rectangle_17_" class="st3" d="M535.7,1199h306.1c28.6,0,51,22.4,51,51s-22.4,51-51,51H535.7c-28.6,0-51-22.4-51-51
					S507.1,1199,535.7,1199z"/>
				<path id="Rectangle_18_" class="st1" d="M229.6,1199h102c28.6,0,51,22.4,51,51s-22.4,51-51,51h-102c-28.6,0-51-22.4-51-51
					S201,1199,229.6,1199z"/>
				<path id="Rectangle_19_" class="st2" d="M1148,586.7h408.2c28.6,0,51,22.4,51,51s-22.4,51-51,51H1148c-28.6,0-51-22.4-51-51
					S1119.4,586.7,1148,586.7z"/>
				<path id="Rectangle_20_" class="st0" d="M229.6,586.7h714.3c28.6,0,51,22.4,51,51s-22.4,51-51,51H229.6c-28.6,0-51-22.4-51-51
					S201,586.7,229.6,586.7z"/>
				<path id="Rectangle_21_" class="st3" d="M535.7,1607.1h918.4c28.6,0,51,22.4,51,51s-22.4,51-51,51H535.7c-28.6,0-51-22.4-51-51
					C484.7,1629.6,507.1,1607.1,535.7,1607.1z"/>
				<path id="Rectangle_22_" class="st2" d="M229.6,1607.1h102c28.6,0,51,22.4,51,51s-22.4,51-51,51h-102c-28.6,0-51-22.4-51-51
					C178.6,1629.6,201,1607.1,229.6,1607.1z"/>
				<path id="Rectangle_23_" class="st1" d="M1454.1,790.8h510.2c28.6,0,51,22.4,51,51s-22.4,51-51,51h-510.2c-28.6,0-51-22.4-51-51
					C1403.1,813.3,1425.5,790.8,1454.1,790.8z"/>
				<path id="Rectangle_24_" class="st3" d="M1454.1,994.9h510.2c28.6,0,51,22.4,51,51s-22.4,51-51,51h-510.2c-28.6,0-51-22.4-51-51
					C1403.1,1017.3,1425.5,994.9,1454.1,994.9z"/>
				<path id="Rectangle_25_" class="st0" d="M229.6,178.6h1224.5c28.6,0,51,22.4,51,51s-22.4,51-51,51H229.6c-28.6,0-51-22.4-51-51
					S201,178.6,229.6,178.6z"/>
				<path id="Rectangle_26_" class="st4" d="M1658.2,178.6h612.2c28.6,0,51,22.4,51,51s-22.4,51-51,51h-612.2c-28.6,0-51-22.4-51-51
					S1629.6,178.6,1658.2,178.6z"/>
				<path id="Rectangle_27_" class="st4" d="M1658.2,1607.1h204.1c28.6,0,51,22.4,51,51s-22.4,51-51,51h-204.1
					c-28.6,0-51-22.4-51-51C1607.1,1629.6,1629.6,1607.1,1658.2,1607.1z"/>
				<path id="Rectangle_28_" class="st4" d="M2066.3,1607.1h204.1c28.6,0,51,22.4,51,51s-22.4,51-51,51h-204.1
					c-28.6,0-51-22.4-51-51C2015.3,1629.6,2037.8,1607.1,2066.3,1607.1z"/>
				<path id="Rectangle_29_" class="st4" d="M1964.3,1403.1h306.1c28.6,0,51,22.4,51,51s-22.4,51-51,51h-306.1
					c-28.6,0-51-22.4-51-51C1913.3,1425.5,1935.7,1403.1,1964.3,1403.1z"/>
				<path id="Rectangle_30_" class="st4" d="M1964.3,382.7h306.1c28.6,0,51,22.4,51,51s-22.4,51-51,51h-306.1c-28.6,0-51-22.4-51-51
					C1913.3,405.1,1935.7,382.7,1964.3,382.7z"/>
				<path id="Rectangle_31_" class="st4" d="M2066.3,1199h204.1c28.6,0,51,22.4,51,51s-22.4,51-51,51h-204.1c-28.6,0-51-22.4-51-51
					S2037.8,1199,2066.3,1199z"/>
				<path id="Rectangle_32_" class="st4" d="M2066.3,586.7h204.1c28.6,0,51,22.4,51,51s-22.4,51-51,51h-204.1c-28.6,0-51-22.4-51-51
					S2037.8,586.7,2066.3,586.7z"/>
				<path id="Rectangle_33_" class="st4" d="M2168.4,790.8h102c28.6,0,51,22.4,51,51s-22.4,51-51,51h-102c-28.6,0-51-22.4-51-51
					C2117.3,813.3,2139.8,790.8,2168.4,790.8z"/>
				<path id="Rectangle_34_" class="st4" d="M2168.4,994.9h102c28.6,0,51,22.4,51,51s-22.4,51-51,51h-102c-28.6,0-51-22.4-51-51
					C2117.3,1017.3,2139.8,994.9,2168.4,994.9z"/>
				<path id="Rectangle_35_" class="st4" d="M1352,1811.2h918.4c28.6,0,51,22.4,51,51s-22.4,51-51,51H1352c-28.6,0-51-22.4-51-51
					C1301,1833.7,1323.5,1811.2,1352,1811.2z"/>
				<path id="Rectangle_36_" class="st4" d="M943.9,1811.2H1148c28.6,0,51,22.4,51,51s-22.4,51-51,51H943.9c-28.6,0-51-22.4-51-51
					C892.9,1833.7,915.3,1811.2,943.9,1811.2z"/>
				<path id="Rectangle_37_" class="st4" d="M1760.2,2219.4h510.2c28.6,0,51,22.4,51,51s-22.4,51-51,51h-510.2
					c-28.6,0-51-22.4-51-51S1731.6,2219.4,1760.2,2219.4z"/>
				<path id="Rectangle_38_" class="st4" d="M943.9,2219.4h612.2c28.6,0,51,22.4,51,51s-22.4,51-51,51H943.9c-28.6,0-51-22.4-51-51
					S915.3,2219.4,943.9,2219.4z"/>
				<path id="Rectangle_39_" class="st4" d="M943.9,790.8H1250c28.6,0,51,22.4,51,51s-22.4,51-51,51H943.9c-28.6,0-51-22.4-51-51
					C892.9,813.3,915.3,790.8,943.9,790.8z"/>
				<path id="Rectangle_40_" class="st4" d="M943.9,994.9H1250c28.6,0,51,22.4,51,51s-22.4,51-51,51H943.9c-28.6,0-51-22.4-51-51
					C892.9,1017.3,915.3,994.9,943.9,994.9z"/>
			</g>
		</g>
	</g>
</g>
</svg>
