<?xml version="1.0" standalone="no"?>
<!DOCTYPE svg PUBLIC "-//W3C//DTD SVG 20010904//EN"
 "http://www.w3.org/TR/2001/REC-SVG-20010904/DTD/svg10.dtd">
<svg version="1.0" xmlns="http://www.w3.org/2000/svg"
 width="400.000000pt" height="400.000000pt" viewBox="0 0 400.000000 400.000000"
 preserveAspectRatio="xMidYMid meet">
<metadata>
Created by potrace 1.16, written by Peter Selinger 2001-2019
</metadata>
<g transform="translate(0.000000,400.000000) scale(0.100000,-0.100000)"
fill="#000000" stroke="none">
<path d="M1749 3935 c-569 -78 -1065 -391 -1382 -870 -163 -248 -273 -555
-308 -865 -14 -129 -7 -390 15 -515 60 -342 199 -650 413 -915 71 -88 233
-246 318 -311 797 -610 1902 -530 2595 187 107 110 161 179 242 304 158 242
264 545 299 850 14 129 7 390 -15 515 -75 426 -267 790 -572 1085 -310 300
-682 478 -1112 535 -136 18 -361 18 -493 0z m281 -1160 c34 -18 60 -62 60
-103 0 -28 -21 -66 -302 -555 -126 -218 -143 -237 -208 -237 -69 0 -126 59
-118 124 2 17 96 193 208 390 153 269 213 364 235 377 36 23 86 24 125 4z
m1275 -69 c81 -34 89 -106 24 -221 -250 -439 -364 -634 -385 -652 -75 -68
-194 -13 -194 89 0 25 50 121 198 378 108 190 204 355 213 367 18 26 66 53 92
53 10 0 33 -6 52 -14z m-2094 -464 c24 -21 32 -39 36 -74 6 -50 27 -9 -365
-690 -55 -96 -70 -110 -129 -115 -39 -4 -53 -1 -77 18 -36 28 -58 81 -50 116
4 14 47 96 96 182 50 86 101 176 115 201 148 264 209 362 232 375 45 24 106
19 142 -13z m1269 13 c34 -18 60 -62 60 -102 0 -17 -48 -111 -126 -248 -69
-121 -162 -285 -207 -364 -87 -153 -114 -181 -175 -181 -66 0 -122 56 -122
122 0 13 66 139 146 279 80 139 169 295 197 344 66 118 85 145 111 155 33 14
84 11 116 -5z"/>
</g>
</svg>
