<svg version="1.2" xmlns="http://www.w3.org/2000/svg" viewBox="0 0 355 452" width="355" height="452">
	<title>java-svg</title>
	<style>
		.s0 { fill: #0074bd } 
		.s1 { fill: #ea2d2e } 
	</style>
	<g id="Layer">
		<path id="Layer" fill-rule="evenodd" class="s0" d="m117.2 349.6c0 0-17.3 10 12.3 13.4 35.8 4.1 54.1 3.5 93.5-3.9 0 0 10.4 6.5 24.9 12.1-88.5 37.9-200.3-2.2-130.7-21.6z"/>
		<path id="Layer" fill-rule="evenodd" class="s0" d="m106.3 300.1c0 0-19.3 14.3 10.3 17.4 38.2 4 68.4 4.3 120.7-5.8 0 0 7.3 7.3 18.6 11.3-107 31.3-226.1 2.5-149.6-22.9z"/>
		<path id="Layer" fill-rule="evenodd" class="s1" d="m197.5 216.1c21.8 25.2-5.7 47.7-5.7 47.7 0 0 55.3-28.5 29.9-64.3-23.7-33.4-41.9-50 56.6-107.2 0 0-154.7 38.7-80.8 123.8z"/>
		<path id="Layer" fill-rule="evenodd" class="s0" d="m314.5 386.2c0 0 12.8 10.5-14 18.7-51.1 15.5-212.6 20.1-257.5 0.6-16.1-7 14.1-16.7 23.6-18.8 9.9-2.1 15.6-1.8 15.6-1.8-17.9-12.6-115.9 24.9-49.8 35.6 180.5 29.2 328.9-13.2 282.1-34.3z"/>
		<path id="Layer" fill-rule="evenodd" class="s0" d="m125.5 248.8c0 0-82.2 19.5-29.1 26.6 22.4 3 67 2.3 108.7-1.1 34-2.9 68.1-9 68.1-9 0 0-12 5.1-20.7 11.1-83.4 21.9-244.6 11.7-198.2-10.8 39.2-18.9 71.2-16.8 71.2-16.8z"/>
		<path id="Layer" fill-rule="evenodd" class="s0" d="m272.8 331.2c84.9-44.1 45.6-86.4 18.3-80.7-6.7 1.4-9.7 2.6-9.7 2.6 0 0 2.5-3.9 7.2-5.6 54.2-19 95.8 56.2-17.4 85.9-0.1 0 1.3-1.2 1.6-2.2z"/>
		<path id="Layer" fill-rule="evenodd" class="s1" d="m221.7 0c0 0 47 47-44.5 119.2-73.4 58-16.8 91-0.1 128.8-42.8-38.6-74.2-72.7-53.2-104.3 31-46.5 116.8-69.1 97.8-143.7z"/>
		<path id="Layer" fill-rule="evenodd" class="s0" d="m133.8 450.6c81.4 5.2 206.4-2.9 209.4-41.4 0 0-5.7 14.6-67.3 26.2-69.5 13.1-155.2 11.6-206 3.2 0 0 10.4 8.6 63.9 12z"/>
		<path id="Layer" fill-rule="evenodd" class="s1" d="m339.4 519.7v6.9h1.8v-6.9h2.4v-1.4h-6.7v1.4zm13.4 0.4v6.5h1.6v-8.3h-2.4l-2.3 5.9-2.3-5.9h-2.4v8.3h1.7v-6.5l2.5 6.5h1.1l2.4-6.5z"/>
		<path id="Layer" fill-rule="evenodd" class="s1" d="m125 621.7l-1.6-11.2c-9.2 7.9-18.9 13.3-32 13.3-20.4 0-31.2-10.4-31.2-28.7 0-21.2 16.4-35.3 52.8-35.3h7.5v-9.4c0-12.4-6.5-18.5-21.5-18.5-10.8 0-21.8 2.9-30.3 6.1l-3.1-13.2c10.8-4.7 24.1-8.5 39.3-8.5 26 0 36.8 12.5 36.8 31.4v74zm-4.6-48.4h-8.9c-24.2 0-30.2 7.9-30.2 18.7 0 10 5.6 16.2 16 16.2 7.3 0 15.4-3.7 23.1-10.4z"/>
		<path id="Layer" fill-rule="evenodd" class="s1" d="m212.4 621.7h-26.5l-31.8-103.5h23.1l19.8 63.6 4.3 19.1c10-27.6 17.1-55.7 20.6-82.7h22.5c-6 34.1-16.9 71.5-32 103.5z"/>
		<path id="Layer" fill-rule="evenodd" class="s1" d="m318.3 621.7l-1.6-11.2c-9.2 7.9-19 13.3-32.1 13.3-20.3 0-31.1-10.4-31.1-28.7 0-21.2 16.4-35.3 52.8-35.3h7.5v-9.4c0-12.4-6.5-18.5-21.5-18.5-10.8 0-21.8 2.9-30.3 6.1l-3.1-13.2c10.8-4.7 24.1-8.5 39.3-8.5 25.9 0 36.8 12.5 36.8 31.4v74zm-4.6-23.9v-24.5h-9c-24.1 0-30.1 7.9-30.1 18.7 0 10 5.6 16.2 16 16.2 7.3 0 15.4-3.7 23.1-10.4z"/>
		<path id="Layer" fill-rule="evenodd" class="s1" d="m36.9 639.3c-6 8.8-15.8 15.8-26.4 19.8l-10.5-12.4c8.1-4.1 15.1-10.9 18.3-17.2 2.8-5.5 4-12.7 4-29.9v-118.2h22.5v116.5c0 23.1-1.8 32.3-7.9 41.4z"/>
	</g>
</svg>